<?xml version="1.0" encoding="UTF-8" standalone="no"?>
<svg
   width="100%"
   height="100%"
   viewBox="0 0 52.916665 105.83333"
   version="1.1"
   id="svg8"
   inkscape:version="1.1 (c68e22c387, 2021-05-23)"
   sodipodi:docname="empty-projects.svg"
   xmlns:inkscape="http://www.inkscape.org/namespaces/inkscape"
   xmlns:sodipodi="http://sodipodi.sourceforge.net/DTD/sodipodi-0.dtd"
   xmlns="http://www.w3.org/2000/svg"
   xmlns:svg="http://www.w3.org/2000/svg"
   xmlns:rdf="http://www.w3.org/1999/02/22-rdf-syntax-ns#"
   xmlns:cc="http://creativecommons.org/ns#"
   xmlns:dc="http://purl.org/dc/elements/1.1/">
  <defs
     id="defs2" />
  <sodipodi:namedview
     id="base"
     pagecolor="#202020"
     bordercolor="#666666"
     borderopacity="1.0"
     inkscape:pageopacity="0"
     inkscape:pageshadow="2"
     inkscape:zoom="5.0740159"
     inkscape:cx="26.507603"
     inkscape:cy="52.916665"
     inkscape:document-units="px"
     inkscape:current-layer="layer2"
     inkscape:document-rotation="0"
     showgrid="false"
     units="px"
     inkscape:snap-bbox="true"
     inkscape:snap-bbox-midpoints="true"
     inkscape:object-nodes="true"
     inkscape:snap-nodes="false"
     inkscape:snap-object-midpoints="true"
     inkscape:snap-page="true"
     inkscape:lockguides="true"
     inkscape:showpageshadow="false"
     inkscape:pagecheckerboard="0"
     inkscape:bbox-paths="false"
     inkscape:bbox-nodes="false"
     inkscape:snap-bbox-edge-midpoints="true"
     inkscape:object-paths="true"
     inkscape:snap-intersection-paths="true"
     inkscape:snap-smooth-nodes="true"
     inkscape:snap-midpoints="true"
     inkscape:snap-center="true"
     inkscape:snap-text-baseline="true"
     inkscape:window-width="1366"
     inkscape:window-height="745"
     inkscape:window-x="-8"
     inkscape:window-y="-8"
     inkscape:window-maximized="1"
     width="200px" />
  <metadata
     id="metadata5">
    <rdf:RDF>
      <cc:Work
         rdf:about="">
        <dc:format>image/svg+xml</dc:format>
        <dc:type
           rdf:resource="http://purl.org/dc/dcmitype/StillImage" />
      </cc:Work>
    </rdf:RDF>
  </metadata>
  <g
     inkscape:label="Background"
     inkscape:groupmode="layer"
     id="layer1"
     style="display:none"
     sodipodi:insensitive="true">
    <rect
       style="opacity:1;vector-effect:none;fill:#ffffff;fill-opacity:1;fill-rule:evenodd;stroke:none;stroke-width:0.633399;stroke-linecap:round;stroke-linejoin:round;stroke-miterlimit:4;stroke-dasharray:none;stroke-dashoffset:0;stroke-opacity:0.760784"
       id="rect18"
       width="52.916664"
       height="105.83333"
       x="0"
       y="0" />
  </g>
  <g
     inkscape:groupmode="layer"
     id="layer2"
     inkscape:label="Base">
    <path
       id="path35"
       style="font-variation-settings:normal;opacity:1;vector-effect:none;fill:#c3c3c3;fill-opacity:1;fill-rule:evenodd;stroke:none;stroke-width:0.529167;stroke-linecap:round;stroke-linejoin:round;stroke-miterlimit:4;stroke-dasharray:none;stroke-dashoffset:0;stroke-opacity:1;stop-color:#000000;stop-opacity:1"
       d="M 44.159895,13.482869 V 23.911773 H 32.359024 V 13.490057 a 11.801175,11.801175 0 0 0 -5.900692,10.21325 11.801175,11.801175 0 0 0 7.080624,10.806814 V 69.742263 A 11.801175,11.801175 0 0 0 26.458332,80.54908 11.801175,11.801175 0 0 0 38.259715,92.35046 11.801175,11.801175 0 0 0 50.060589,80.54908 11.801175,11.801175 0 0 0 42.979962,69.733023 V 34.518334 A 11.801175,11.801175 0 0 0 50.060589,23.703307 11.801175,11.801175 0 0 0 44.159895,13.482869 Z M 33.834198,72.88413 h 8.850525 l 4.425519,7.66495 -4.425519,7.66545 h -8.850525 l -4.425519,-7.66545 z" />
    <rect
       style="font-variation-settings:normal;opacity:1;vector-effect:none;fill:#c3c3c3;fill-opacity:1;fill-rule:evenodd;stroke:none;stroke-width:0.529166;stroke-linecap:round;stroke-linejoin:round;stroke-miterlimit:4;stroke-dasharray:none;stroke-dashoffset:0;stroke-opacity:1;stop-color:#000000;stop-opacity:1"
       id="rect1139"
       width="3.6151896"
       height="48.20253"
       x="7.6584544"
       y="20.55419" />
    <path
       id="path1979"
       style="opacity:1;vector-effect:none;fill:#c3c3c3;fill-opacity:1;fill-rule:evenodd;stroke:none;stroke-width:0.529168;stroke-linecap:round;stroke-linejoin:round;stroke-opacity:1;stop-color:#000000;stop-opacity:1"
       d="m 7.6584301,21.845009 -1.060298,-1.290825 1.060298,-6.563907 h 3.6152009 l 1.060328,6.563907 -1.060328,1.290825 z"
       sodipodi:nodetypes="ccccccc" />
    <path
       id="rect3199"
       style="font-variation-settings:normal;opacity:1;vector-effect:none;fill:#484848;fill-opacity:1;fill-rule:evenodd;stroke:none;stroke-width:0.529169;stroke-linecap:round;stroke-linejoin:round;stroke-miterlimit:4;stroke-dasharray:none;stroke-dashoffset:0;stroke-opacity:1;stop-color:#000000;stop-opacity:1"
       d="m 5.2484061,68.756636 c -1.001408,0 -1.807601,0.806194 -1.807601,1.807601 0,0.790862 0.502954,1.459748 1.207661,1.706143 -9.74e-4,0.03378 -0.002,0.06747 -0.002,0.101408 V 89.24267 c 0,2.00281 1.612376,3.6152 3.61519,3.6152 H 10.67179 c 2.002815,0 3.615201,-1.61239 3.615201,-3.6152 V 72.371788 c 0,-0.03418 -0.002,-0.06776 -0.002,-0.101607 0.704656,-0.246444 1.20765,-0.915102 1.20765,-1.705924 0,-1.001407 -0.806183,-1.807601 -1.80759,-1.807601 H 10.672403 8.2622691 Z" />
    <path
       id="path1552"
       style="opacity:1;vector-effect:none;fill:#dadada;fill-opacity:1;fill-rule:evenodd;stroke:none;stroke-width:0.529166;stroke-linecap:round;stroke-linejoin:round;stroke-opacity:1;stop-color:#000000;stop-opacity:1"
       d="m 7.6584301,13.990277 h 3.6152009 l 0.233597,1.44609 H 7.4248531 Z"
       sodipodi:nodetypes="ccccc" />
  </g>
</svg>
